<mxfile host="app.diagrams.net" agent="Mozilla/5.0 (X11; Ubuntu; Linux x86_64; rv:132.0) Gecko/20100101 Firefox/132.0" version="24.8.6">
  <diagram name="Page-1" id="MTC3WSLpt4ToaXbaxoXk">
    <mxGraphModel dx="1085" dy="573" grid="1" gridSize="10" guides="1" tooltips="1" connect="1" arrows="1" fold="1" page="1" pageScale="1" pageWidth="827" pageHeight="1169" math="0" shadow="0">
      <root>
        <mxCell id="0" />
        <mxCell id="1" parent="0" />
        <mxCell id="B895lldF-2tsAJIkW0Hh-1" value="&lt;b&gt;Assurance&lt;/b&gt;" style="shape=umlActor;verticalLabelPosition=bottom;verticalAlign=top;html=1;outlineConnect=0;" vertex="1" parent="1">
          <mxGeometry x="17" y="251" width="30" height="60" as="geometry" />
        </mxCell>
        <mxCell id="B895lldF-2tsAJIkW0Hh-2" value="Système DOSER" style="swimlane;whiteSpace=wrap;html=1;startSize=25;" vertex="1" parent="1">
          <mxGeometry x="80" y="22" width="737" height="1126" as="geometry" />
        </mxCell>
        <mxCell id="B895lldF-2tsAJIkW0Hh-3" value="&lt;b&gt;Collecter les données statistiques&lt;/b&gt;" style="ellipse;whiteSpace=wrap;html=1;" vertex="1" parent="B895lldF-2tsAJIkW0Hh-2">
          <mxGeometry x="260" y="948" width="140" height="70" as="geometry" />
        </mxCell>
        <mxCell id="B895lldF-2tsAJIkW0Hh-4" value="&lt;b&gt;Communiquer avec les assures&lt;/b&gt;" style="ellipse;whiteSpace=wrap;html=1;" vertex="1" parent="B895lldF-2tsAJIkW0Hh-2">
          <mxGeometry x="240" y="508" width="140" height="70" as="geometry" />
        </mxCell>
        <mxCell id="B895lldF-2tsAJIkW0Hh-5" value="&lt;b&gt;Vérifier les contrats d&#39;assurance&lt;/b&gt;" style="ellipse;whiteSpace=wrap;html=1;" vertex="1" parent="B895lldF-2tsAJIkW0Hh-2">
          <mxGeometry x="240" y="248" width="140" height="70" as="geometry" />
        </mxCell>
        <mxCell id="B895lldF-2tsAJIkW0Hh-6" value="&lt;b&gt;Declarer les sinistres&lt;/b&gt;" style="ellipse;whiteSpace=wrap;html=1;" vertex="1" parent="B895lldF-2tsAJIkW0Hh-2">
          <mxGeometry x="20" y="272" width="140" height="70" as="geometry" />
        </mxCell>
        <mxCell id="B895lldF-2tsAJIkW0Hh-7" value="Include" style="endArrow=open;endSize=12;dashed=1;html=1;rounded=0;exitX=1;exitY=0.5;exitDx=0;exitDy=0;" edge="1" parent="B895lldF-2tsAJIkW0Hh-2" source="B895lldF-2tsAJIkW0Hh-6" target="B895lldF-2tsAJIkW0Hh-5">
          <mxGeometry width="160" relative="1" as="geometry">
            <mxPoint x="170" y="330" as="sourcePoint" />
            <mxPoint x="330" y="330" as="targetPoint" />
          </mxGeometry>
        </mxCell>
        <mxCell id="B895lldF-2tsAJIkW0Hh-10" value="&lt;b&gt;Fournir les dossiers des véhicules des assur&lt;/b&gt;&lt;b&gt;é&lt;/b&gt;&lt;b&gt;s&lt;/b&gt;" style="ellipse;whiteSpace=wrap;html=1;" vertex="1" parent="B895lldF-2tsAJIkW0Hh-2">
          <mxGeometry x="240" y="708" width="140" height="70" as="geometry" />
        </mxCell>
        <mxCell id="B895lldF-2tsAJIkW0Hh-11" value="&lt;b&gt;Valider les frais medicaux&lt;/b&gt;" style="ellipse;whiteSpace=wrap;html=1;" vertex="1" parent="B895lldF-2tsAJIkW0Hh-2">
          <mxGeometry x="490" y="68" width="140" height="70" as="geometry" />
        </mxCell>
        <mxCell id="B895lldF-2tsAJIkW0Hh-12" value="&lt;b&gt;Epur&lt;/b&gt;&lt;b&gt;é&lt;/b&gt;&lt;b&gt;s les frais m&lt;/b&gt;&lt;b&gt;é&lt;/b&gt;&lt;b&gt;dicaux&lt;/b&gt;" style="ellipse;whiteSpace=wrap;html=1;" vertex="1" parent="B895lldF-2tsAJIkW0Hh-2">
          <mxGeometry x="490" y="338" width="140" height="70" as="geometry" />
        </mxCell>
        <mxCell id="B895lldF-2tsAJIkW0Hh-13" value="Include" style="endArrow=open;endSize=12;dashed=1;html=1;rounded=0;exitX=0.5;exitY=0;exitDx=0;exitDy=0;" edge="1" parent="B895lldF-2tsAJIkW0Hh-2" source="B895lldF-2tsAJIkW0Hh-12" target="B895lldF-2tsAJIkW0Hh-16">
          <mxGeometry width="160" relative="1" as="geometry">
            <mxPoint x="399" y="361" as="sourcePoint" />
            <mxPoint x="470" y="441" as="targetPoint" />
          </mxGeometry>
        </mxCell>
        <mxCell id="B895lldF-2tsAJIkW0Hh-14" value="&lt;b&gt;Evaluer les dommages&lt;/b&gt;" style="ellipse;whiteSpace=wrap;html=1;" vertex="1" parent="B895lldF-2tsAJIkW0Hh-2">
          <mxGeometry x="240" y="116" width="140" height="70" as="geometry" />
        </mxCell>
        <mxCell id="B895lldF-2tsAJIkW0Hh-15" value="Include" style="endArrow=open;endSize=12;dashed=1;html=1;rounded=0;exitX=0.5;exitY=0;exitDx=0;exitDy=0;" edge="1" parent="B895lldF-2tsAJIkW0Hh-2" source="B895lldF-2tsAJIkW0Hh-6" target="B895lldF-2tsAJIkW0Hh-14">
          <mxGeometry width="160" relative="1" as="geometry">
            <mxPoint x="140" y="177" as="sourcePoint" />
            <mxPoint x="140" y="273" as="targetPoint" />
            <Array as="points" />
          </mxGeometry>
        </mxCell>
        <mxCell id="B895lldF-2tsAJIkW0Hh-16" value="&lt;b&gt;Indemniser les victimes&lt;/b&gt;" style="ellipse;whiteSpace=wrap;html=1;" vertex="1" parent="B895lldF-2tsAJIkW0Hh-2">
          <mxGeometry x="490" y="188" width="140" height="70" as="geometry" />
        </mxCell>
        <mxCell id="B895lldF-2tsAJIkW0Hh-17" value="Extend" style="endArrow=open;endSize=12;dashed=1;html=1;rounded=0;entryX=1;entryY=1;entryDx=0;entryDy=0;exitX=0;exitY=0;exitDx=0;exitDy=0;" edge="1" parent="B895lldF-2tsAJIkW0Hh-2" source="B895lldF-2tsAJIkW0Hh-16" target="B895lldF-2tsAJIkW0Hh-14">
          <mxGeometry width="160" relative="1" as="geometry">
            <mxPoint x="254" y="175" as="sourcePoint" />
            <mxPoint x="414" y="175" as="targetPoint" />
          </mxGeometry>
        </mxCell>
        <mxCell id="B895lldF-2tsAJIkW0Hh-18" value="Extend" style="endArrow=open;endSize=12;dashed=1;html=1;rounded=0;entryX=1;entryY=0.5;entryDx=0;entryDy=0;exitX=0;exitY=1;exitDx=0;exitDy=0;" edge="1" parent="B895lldF-2tsAJIkW0Hh-2" source="B895lldF-2tsAJIkW0Hh-16" target="B895lldF-2tsAJIkW0Hh-5">
          <mxGeometry width="160" relative="1" as="geometry">
            <mxPoint x="330" y="346" as="sourcePoint" />
            <mxPoint x="490" y="346" as="targetPoint" />
          </mxGeometry>
        </mxCell>
        <mxCell id="B895lldF-2tsAJIkW0Hh-19" value="&lt;b&gt;Associer les victimes aux accidents&lt;/b&gt;" style="ellipse;whiteSpace=wrap;html=1;" vertex="1" parent="B895lldF-2tsAJIkW0Hh-2">
          <mxGeometry x="240" y="358" width="140" height="70" as="geometry" />
        </mxCell>
        <mxCell id="B895lldF-2tsAJIkW0Hh-20" value="&lt;b&gt;Suivre les victimes&lt;br&gt;&lt;/b&gt;" style="ellipse;whiteSpace=wrap;html=1;" vertex="1" parent="B895lldF-2tsAJIkW0Hh-2">
          <mxGeometry x="20" y="408" width="140" height="70" as="geometry" />
        </mxCell>
        <mxCell id="B895lldF-2tsAJIkW0Hh-23" value="&lt;b&gt;Collaborer avec les autorites&lt;/b&gt;" style="ellipse;whiteSpace=wrap;html=1;" vertex="1" parent="B895lldF-2tsAJIkW0Hh-2">
          <mxGeometry x="20" y="538" width="140" height="70" as="geometry" />
        </mxCell>
        <mxCell id="B895lldF-2tsAJIkW0Hh-24" value="&lt;b&gt;Mettre a jour les dossiers des assur&lt;/b&gt;&lt;b&gt;é&lt;/b&gt;&lt;b&gt;s&lt;/b&gt;" style="ellipse;whiteSpace=wrap;html=1;" vertex="1" parent="B895lldF-2tsAJIkW0Hh-2">
          <mxGeometry x="240" y="618" width="140" height="70" as="geometry" />
        </mxCell>
        <mxCell id="B895lldF-2tsAJIkW0Hh-26" value="Include" style="endArrow=open;endSize=12;dashed=1;html=1;rounded=0;exitX=0.5;exitY=1;exitDx=0;exitDy=0;entryX=0;entryY=0.5;entryDx=0;entryDy=0;" edge="1" parent="B895lldF-2tsAJIkW0Hh-2" source="B895lldF-2tsAJIkW0Hh-6" target="B895lldF-2tsAJIkW0Hh-19">
          <mxGeometry width="160" relative="1" as="geometry">
            <mxPoint x="98" y="420" as="sourcePoint" />
            <mxPoint x="258" y="420" as="targetPoint" />
          </mxGeometry>
        </mxCell>
        <mxCell id="B895lldF-2tsAJIkW0Hh-27" value="Include" style="endArrow=open;endSize=12;dashed=1;html=1;rounded=0;entryX=0.5;entryY=0;entryDx=0;entryDy=0;exitX=0.5;exitY=1;exitDx=0;exitDy=0;" edge="1" parent="B895lldF-2tsAJIkW0Hh-2" source="B895lldF-2tsAJIkW0Hh-11" target="B895lldF-2tsAJIkW0Hh-16">
          <mxGeometry width="160" relative="1" as="geometry">
            <mxPoint x="529" y="133" as="sourcePoint" />
            <mxPoint x="673" y="180" as="targetPoint" />
          </mxGeometry>
        </mxCell>
        <mxCell id="B895lldF-2tsAJIkW0Hh-29" value="Include" style="endArrow=open;endSize=12;dashed=1;html=1;rounded=0;exitX=0.5;exitY=1;exitDx=0;exitDy=0;entryX=0;entryY=0.5;entryDx=0;entryDy=0;" edge="1" parent="B895lldF-2tsAJIkW0Hh-2" source="B895lldF-2tsAJIkW0Hh-23" target="B895lldF-2tsAJIkW0Hh-10">
          <mxGeometry width="160" relative="1" as="geometry">
            <mxPoint x="162" y="822" as="sourcePoint" />
            <mxPoint x="322" y="822" as="targetPoint" />
            <Array as="points">
              <mxPoint x="90" y="738" />
            </Array>
          </mxGeometry>
        </mxCell>
        <mxCell id="B895lldF-2tsAJIkW0Hh-30" value="&lt;b&gt;Analyser les tendances en matière de sinistres&lt;/b&gt;" style="ellipse;whiteSpace=wrap;html=1;" vertex="1" parent="B895lldF-2tsAJIkW0Hh-2">
          <mxGeometry x="260" y="788" width="140" height="70" as="geometry" />
        </mxCell>
        <mxCell id="B895lldF-2tsAJIkW0Hh-31" value="Include" style="endArrow=open;endSize=12;dashed=1;html=1;rounded=0;entryX=0;entryY=0.5;entryDx=0;entryDy=0;exitX=1;exitY=0.5;exitDx=0;exitDy=0;" edge="1" parent="B895lldF-2tsAJIkW0Hh-2" source="B895lldF-2tsAJIkW0Hh-33" target="B895lldF-2tsAJIkW0Hh-30">
          <mxGeometry width="160" relative="1" as="geometry">
            <mxPoint x="189" y="974" as="sourcePoint" />
            <mxPoint x="349" y="974" as="targetPoint" />
          </mxGeometry>
        </mxCell>
        <mxCell id="B895lldF-2tsAJIkW0Hh-32" value="Include" style="endArrow=open;endSize=12;dashed=1;html=1;rounded=0;entryX=0;entryY=0;entryDx=0;entryDy=0;exitX=0.5;exitY=1;exitDx=0;exitDy=0;" edge="1" parent="B895lldF-2tsAJIkW0Hh-2" source="B895lldF-2tsAJIkW0Hh-33" target="B895lldF-2tsAJIkW0Hh-3">
          <mxGeometry width="160" relative="1" as="geometry">
            <mxPoint x="213" y="1043" as="sourcePoint" />
            <mxPoint x="373" y="1043" as="targetPoint" />
          </mxGeometry>
        </mxCell>
        <mxCell id="B895lldF-2tsAJIkW0Hh-33" value="&lt;b&gt;Etablir les rapports d&#39;accident&lt;/b&gt;" style="ellipse;whiteSpace=wrap;html=1;" vertex="1" parent="B895lldF-2tsAJIkW0Hh-2">
          <mxGeometry x="20" y="768" width="140" height="70" as="geometry" />
        </mxCell>
        <mxCell id="B895lldF-2tsAJIkW0Hh-34" value="&lt;b&gt;Fournir les dossiers des vehicules assures&lt;/b&gt;" style="ellipse;whiteSpace=wrap;html=1;" vertex="1" parent="B895lldF-2tsAJIkW0Hh-2">
          <mxGeometry x="20" y="116" width="140" height="70" as="geometry" />
        </mxCell>
        <mxCell id="B895lldF-2tsAJIkW0Hh-41" value="Include" style="endArrow=open;endSize=12;dashed=1;html=1;rounded=0;exitX=1;exitY=1;exitDx=0;exitDy=0;entryX=0;entryY=0.5;entryDx=0;entryDy=0;" edge="1" parent="B895lldF-2tsAJIkW0Hh-2" source="B895lldF-2tsAJIkW0Hh-20" target="B895lldF-2tsAJIkW0Hh-4">
          <mxGeometry width="160" relative="1" as="geometry">
            <mxPoint x="270" y="428" as="sourcePoint" />
            <mxPoint x="430" y="428" as="targetPoint" />
          </mxGeometry>
        </mxCell>
        <mxCell id="B895lldF-2tsAJIkW0Hh-42" value="include" style="endArrow=open;endSize=12;dashed=1;html=1;rounded=0;exitX=1;exitY=1;exitDx=0;exitDy=0;entryX=0;entryY=0.5;entryDx=0;entryDy=0;" edge="1" parent="B895lldF-2tsAJIkW0Hh-2" source="B895lldF-2tsAJIkW0Hh-23" target="B895lldF-2tsAJIkW0Hh-24">
          <mxGeometry width="160" relative="1" as="geometry">
            <mxPoint x="120" y="648" as="sourcePoint" />
            <mxPoint x="280" y="648" as="targetPoint" />
          </mxGeometry>
        </mxCell>
        <mxCell id="B895lldF-2tsAJIkW0Hh-45" value="Authentification" style="ellipse;whiteSpace=wrap;html=1;fillColor=none;strokeColor=#b85450;strokeWidth=1;" vertex="1" parent="B895lldF-2tsAJIkW0Hh-2">
          <mxGeometry x="590" y="478" width="140" height="112" as="geometry" />
        </mxCell>
        <mxCell id="B895lldF-2tsAJIkW0Hh-46" value="" style="endArrow=open;endFill=1;endSize=12;html=1;rounded=0;fillColor=#f8cecc;strokeColor=#b85450;strokeWidth=1;exitX=0.5;exitY=0;exitDx=0;exitDy=0;entryX=0.5;entryY=0;entryDx=0;entryDy=0;" edge="1" parent="B895lldF-2tsAJIkW0Hh-2" source="B895lldF-2tsAJIkW0Hh-34" target="B895lldF-2tsAJIkW0Hh-45">
          <mxGeometry width="160" relative="1" as="geometry">
            <mxPoint x="250" y="208" as="sourcePoint" />
            <mxPoint x="700" y="378" as="targetPoint" />
            <Array as="points">
              <mxPoint x="90" y="48" />
              <mxPoint x="660" y="48" />
            </Array>
          </mxGeometry>
        </mxCell>
        <mxCell id="B895lldF-2tsAJIkW0Hh-47" value="" style="endArrow=open;endFill=1;endSize=12;html=1;rounded=0;fillColor=#f8cecc;strokeColor=#b85450;strokeWidth=1;exitX=0.44;exitY=1.024;exitDx=0;exitDy=0;entryX=0.5;entryY=1;entryDx=0;entryDy=0;exitPerimeter=0;" edge="1" parent="B895lldF-2tsAJIkW0Hh-2" source="B895lldF-2tsAJIkW0Hh-33" target="B895lldF-2tsAJIkW0Hh-45">
          <mxGeometry width="160" relative="1" as="geometry">
            <mxPoint x="250" y="868" as="sourcePoint" />
            <mxPoint x="680" y="1088" as="targetPoint" />
            <Array as="points">
              <mxPoint x="82" y="1088" />
              <mxPoint x="660" y="1088" />
            </Array>
          </mxGeometry>
        </mxCell>
        <mxCell id="B895lldF-2tsAJIkW0Hh-48" value="" style="endArrow=open;endFill=1;endSize=12;html=1;rounded=0;exitX=0.402;exitY=1.024;exitDx=0;exitDy=0;exitPerimeter=0;entryX=0;entryY=0.5;entryDx=0;entryDy=0;fillColor=#f8cecc;strokeColor=#b85450;strokeWidth=1;" edge="1" parent="B895lldF-2tsAJIkW0Hh-2" source="B895lldF-2tsAJIkW0Hh-6" target="B895lldF-2tsAJIkW0Hh-45">
          <mxGeometry width="160" relative="1" as="geometry">
            <mxPoint x="210" y="338" as="sourcePoint" />
            <mxPoint x="580" y="588" as="targetPoint" />
            <Array as="points">
              <mxPoint x="80" y="378" />
              <mxPoint x="430" y="538" />
            </Array>
          </mxGeometry>
        </mxCell>
        <mxCell id="B895lldF-2tsAJIkW0Hh-49" value="" style="endArrow=open;endFill=1;endSize=12;html=1;rounded=0;exitX=0.714;exitY=1;exitDx=0;exitDy=0;exitPerimeter=0;fillColor=#f8cecc;strokeColor=#b85450;entryX=0.245;entryY=0.92;entryDx=0;entryDy=0;entryPerimeter=0;" edge="1" parent="B895lldF-2tsAJIkW0Hh-2" source="B895lldF-2tsAJIkW0Hh-23" target="B895lldF-2tsAJIkW0Hh-45">
          <mxGeometry width="160" relative="1" as="geometry">
            <mxPoint x="150" y="668" as="sourcePoint" />
            <mxPoint x="630" y="698" as="targetPoint" />
            <Array as="points">
              <mxPoint x="130" y="698" />
              <mxPoint x="440" y="698" />
            </Array>
          </mxGeometry>
        </mxCell>
        <mxCell id="B895lldF-2tsAJIkW0Hh-50" value="" style="endArrow=open;endFill=1;endSize=12;html=1;rounded=0;exitX=0.5;exitY=1;exitDx=0;exitDy=0;entryX=0.083;entryY=0.765;entryDx=0;entryDy=0;entryPerimeter=0;fillColor=#f8cecc;strokeColor=#b85450;" edge="1" parent="B895lldF-2tsAJIkW0Hh-2" source="B895lldF-2tsAJIkW0Hh-20" target="B895lldF-2tsAJIkW0Hh-45">
          <mxGeometry width="160" relative="1" as="geometry">
            <mxPoint x="150" y="558" as="sourcePoint" />
            <mxPoint x="570" y="588" as="targetPoint" />
            <Array as="points">
              <mxPoint x="200" y="588" />
              <mxPoint x="460" y="588" />
            </Array>
          </mxGeometry>
        </mxCell>
        <mxCell id="B895lldF-2tsAJIkW0Hh-36" value="" style="endArrow=open;endFill=1;endSize=12;html=1;rounded=0;entryX=0;entryY=0.5;entryDx=0;entryDy=0;" edge="1" parent="1" source="B895lldF-2tsAJIkW0Hh-1" target="B895lldF-2tsAJIkW0Hh-23">
          <mxGeometry width="160" relative="1" as="geometry">
            <mxPoint x="199" y="783" as="sourcePoint" />
            <mxPoint x="359" y="783" as="targetPoint" />
          </mxGeometry>
        </mxCell>
        <mxCell id="B895lldF-2tsAJIkW0Hh-37" value="" style="endArrow=open;endFill=1;endSize=12;html=1;rounded=0;entryX=0;entryY=0;entryDx=0;entryDy=0;" edge="1" parent="1" source="B895lldF-2tsAJIkW0Hh-1" target="B895lldF-2tsAJIkW0Hh-33">
          <mxGeometry width="160" relative="1" as="geometry">
            <mxPoint x="115" y="936" as="sourcePoint" />
            <mxPoint x="204.05211413532993" y="1061.0233238791845" as="targetPoint" />
          </mxGeometry>
        </mxCell>
        <mxCell id="B895lldF-2tsAJIkW0Hh-38" value="" style="endArrow=open;endFill=1;endSize=12;html=1;rounded=0;entryX=0.018;entryY=0.343;entryDx=0;entryDy=0;entryPerimeter=0;" edge="1" parent="1" target="B895lldF-2tsAJIkW0Hh-34">
          <mxGeometry width="160" relative="1" as="geometry">
            <mxPoint x="48" y="298" as="sourcePoint" />
            <mxPoint x="576" y="364" as="targetPoint" />
          </mxGeometry>
        </mxCell>
        <mxCell id="B895lldF-2tsAJIkW0Hh-39" value="" style="endArrow=open;endFill=1;endSize=12;html=1;rounded=0;entryX=0.021;entryY=0.657;entryDx=0;entryDy=0;entryPerimeter=0;exitX=1;exitY=1;exitDx=0;exitDy=0;exitPerimeter=0;" edge="1" parent="1" source="B895lldF-2tsAJIkW0Hh-1" target="B895lldF-2tsAJIkW0Hh-6">
          <mxGeometry width="160" relative="1" as="geometry">
            <mxPoint x="60" y="300" as="sourcePoint" />
            <mxPoint x="210" y="300" as="targetPoint" />
          </mxGeometry>
        </mxCell>
        <mxCell id="B895lldF-2tsAJIkW0Hh-40" value="" style="endArrow=open;endFill=1;endSize=12;html=1;rounded=0;exitX=1;exitY=1;exitDx=0;exitDy=0;exitPerimeter=0;entryX=0;entryY=0.5;entryDx=0;entryDy=0;" edge="1" parent="1" source="B895lldF-2tsAJIkW0Hh-1" target="B895lldF-2tsAJIkW0Hh-20">
          <mxGeometry width="160" relative="1" as="geometry">
            <mxPoint x="100" y="360" as="sourcePoint" />
            <mxPoint x="260" y="360" as="targetPoint" />
          </mxGeometry>
        </mxCell>
      </root>
    </mxGraphModel>
  </diagram>
</mxfile>
